# Alias OBJ Model File
# Exported from SketchUp, (c) 2000-2012 Trimble Navigation Limited
# File units = meters

mtllib piedramalodepapa.mtl

g Mesh1 Model

usemtl FrontColor
v -0.45757 1.85 1.11633
vt 18.0146 -43.9501
vn 0 -1 -0
v -1.10984 1.85 0.46406
vt 43.6946 -18.2701
v -1.10984 1.85 -0.458393
vt 43.6946 18.047
v -0.45757 1.85 -1.11067
vt 18.0146 43.727
v 0.464884 1.85 -1.11067
vt -18.3025 43.727
v 1.11716 1.85 -0.458393
vt -43.9826 18.047
v 1.11716 1.85 0.46406
vt -43.9826 -18.2701
v 0.464884 1.85 1.11633
vt -18.3025 -43.9501
f 1/1/1 2/2/1 3/3/1 4/4/1 5/5/1 6/6/1 7/7/1 8/8/1 

vt -18.3392 66.4759
vn 0.701029 -0.130836 -0.701029
v -0.956343 0 0.962834
vt -0.180694 -6.99025
vt 17.9778 66.4759
f 1/9/2 9/10/2 2/11/2

vt -18.3025 76.2194
vn 5.12205e-16 0.0826888 -0.996575
v 0.963657 0 0.962834
vt -37.9393 3.13447
vt 37.6513 3.13447
vt 18.0146 76.2194
f 8/12/3 10/13/3 9/14/3 1/15/3 

vt -0.0229293 -7.0169
vn -0.701029 -0.130836 -0.701029
vt 18.1356 66.4493
vt -18.1815 66.4493
f 10/16/4 8/17/4 7/18/4

usemtl Color_H05
v 0.963657 0 -0.957166
vt 37.6837 3.13715
vn 0.996575 -0.0826888 -4.40723e-16
vt 18.047 76.2221
vt -18.2701 76.2221
vt -37.9068 3.13715
f 11/19/5 6/20/5 7/21/5 10/22/5 

usemtl FrontColor
vt 0.180694 -6.99625
vn -0.701029 -0.130836 0.701029
vt 18.3392 66.4699
vt -17.9778 66.4699
f 11/23/6 6/24/6 5/25/6

usemtl Color_H05
v -0.956343 0 -0.957166
vt 37.6513 3.11602
vn -1.49781e-16 -0.0826888 -0.996575
vt 18.0146 76.201
vt -18.3025 76.201
vt -37.9393 3.11602
f 12/26/7 4/27/7 5/28/7 11/29/7 

usemtl Color_E04
vt -18.1815 66.4965
vn -0.701029 0.130836 -0.701029
vt -0.0229293 -6.96961
vt 18.1356 66.4965
f 4/30/8 12/31/8 3/32/8

usemtl Color_H05
vt -37.6837 3.11334
vn -0.996575 -0.0826888 -3.62981e-16
vt 37.9068 3.11334
vt 18.2701 76.1983
vt -18.047 76.1983
f 12/33/9 9/34/9 2/35/9 3/36/9 

usemtl Color_E04
vt 37.6513 37.6837
v 0.00365718 0 0.00283354
vt -0.143984 -0.111557
vt 37.6513 -37.9068
f 12/37/1 13/38/1 9/39/1

vt -37.9393 37.6837
f 12/37/1 11/40/1 13/38/1

vt -37.9393 -37.9068
f 10/41/1 13/38/1 11/40/1

f 10/41/1 9/39/1 13/38/1

