# Alias OBJ Model File
# Exported from SketchUp, (c) 2000-2012 Trimble Navigation Limited
# File units = meters

mtllib piedradepapa.mtl

g Mesh1 Model

usemtl Color_I08
v 0.649348 -1.07604e-15 0.855064
vt -25.5649 -33.6639
vn 0 -1 -0
v -0.107017 -1.07604e-15 0.972104
vt 4.21325 -38.2718
v -0.724608 -1.07604e-15 0.520034
vt 28.5279 -20.4738
v -0.841648 -1.07604e-15 -0.236331
vt 33.1358 9.30438
v -0.389578 -1.07604e-15 -0.853922
vt 15.3377 33.619
v 0.366787 -1.07604e-15 -0.970963
vt -14.4404 38.2269
v 0.984378 -1.07604e-15 -0.518892
vt -38.755 20.4288
v 1.10142 -1.07604e-15 0.237473
vt -43.3629 -9.34932
f 1/1/1 2/2/1 3/3/1 4/4/1 5/5/1 6/6/1 7/7/1 8/8/1 

usemtl Color_I05
vt 20.1163 -4.50755
vn 0.151793 0.121244 0.980948
v 0.263634 0.84 0.810926
vt 5.37501 28.8091
vt -10.0163 -4.50755
f 1/9/2 9/10/2 2/11/2

usemtl FrontColor
v 0.793374 0.84 0.488887
vt -16.6919 22.9082
vn -0.499777 -0.272687 -0.82211
vt -4.35786 -11.4653
vt 7.71547 22.9082
f 10/12/3 1/13/3 9/14/3

vt 12.064 -4.79235
vn -0.801256 -0.118292 -0.586512
vt -2.91812 28.5124
vt -18.0685 -4.79235
f 1/15/4 10/16/4 8/17/4

v 0.940241 0.84 -0.113413
vt -13.1075 22.2224
vn -0.934236 -0.27442 -0.227807
vt -1.18959 -12.1687
vt 11.2999 22.2224
f 11/18/5 8/19/5 10/20/5

usemtl Color_I05
vt 14.2621 -5.16801
vn 0.980517 0.124761 -0.151726
vt -1.24817 28.1633
vt -15.8705 -5.16801
f 7/21/6 11/22/6 8/23/6

usemtl FrontColor
v 0.618201 0.84 -0.643153
vt -8.9936 22.0882
vn -0.81943 -0.283519 0.498148
vt 2.67552 -12.3977
vt 15.4138 22.0882
f 12/24/7 7/25/7 11/26/7

usemtl Color_I05
vt 10.9267 -5.38721
vn 0.585104 0.136816 -0.799334
vt -4.6833 27.9976
vt -19.2058 -5.38721
f 6/27/8 12/28/8 7/29/8

usemtl FrontColor
v 0.0159018 0.84 -0.79002
vt -6.76017 22.659
vn -0.226391 -0.29456 0.92843
vt 4.97335 -11.9472
vt 17.6472 22.659
f 13/30/9 6/31/9 12/32/9

usemtl Color_I05
vt 10.0163 -5.24179
vn -0.151251 0.14737 -0.977448
vt -5.37501 28.1941
vt -20.1163 -5.24179
f 5/33/10 13/34/10 6/35/10

usemtl FrontColor
v -0.513839 0.84 -0.46798
vt -7.71547 23.6315
vn 0.495356 -0.301103 0.814837
vt 4.35786 -11.0488
vt 16.6919 23.6315
f 14/36/11 5/37/11 13/38/11

usemtl Color_I05
vt 12.064 -4.84429
vn -0.797757 0.150287 -0.58395
vt -2.91812 28.6065
vt -18.0685 -4.84429
f 4/39/12 14/40/12 5/41/12

usemtl FrontColor
v -0.660705 0.84 0.134319
vt -11.2999 24.3622
vn 0.926963 -0.299413 0.226034
vt 1.18959 -10.2988
vt 13.1075 24.3622
f 15/42/13 4/43/13 14/44/13

usemtl Color_I05
vt 15.8705 -4.50694
vn -0.977955 0.143885 0.15133
vt 1.24817 28.9117
vt -14.2621 -4.50694
f 3/45/14 15/46/14 4/47/14

usemtl FrontColor
v -0.338666 0.84 0.664059
vt -15.4138 24.3915
vn 0.817656 -0.290449 -0.497069
vt -2.67552 -10.1693
vt 8.9936 24.3915
f 16/48/15 3/49/15 15/50/15

usemtl Color_I05
vt 19.2058 -4.40046
vn -0.585501 0.131865 0.799875
vt 4.6833 28.9617
vt -10.9267 -4.40046
f 2/51/16 16/52/16 3/53/16

usemtl FrontColor
vt -17.6472 23.7759
vn 0.22747 -0.279365 -0.932852
vt -4.97335 -10.6663
vt 6.76017 23.7759
f 9/54/17 2/55/17 16/56/17

vt 26.012 -5.28815
vt 20.2299 18.4244
vt -0.626053 31.1032
vt -24.3386 25.321
vt -37.0174 4.46507
vt -31.2352 -19.2475
vt -10.3793 -31.9262
vt 13.3333 -26.1441
f 15/57/1 14/58/1 13/59/1 12/60/1 11/61/1 10/62/1 9/63/1 16/64/1 

